# AST/ASF file generated using VICON BodyLanguage
# -----------------------------------------------
:version 1.10
:name VICON
:units
  mass 1.0
  length 0.45
  angle deg
:documentation
   .ast/.asf automatically generated from VICON data using
   VICON BodyBuilder and BodyLanguage model FoxedUp or BRILLIANT.MOD
:root
   order TX TY TZ RX RY RZ
   axis XYZ
   position 0 0 0  
   orientation 0 0 0 
:bonedata
  begin
     id 1 
     name lhipjoint
     direction 0.655637 -0.713449 0.247245 
     length 2.52691 
     axis 0 0 0  XYZ
  end
  begin
     id 2 
     name lfemur
     direction 0.34202 -0.939693 0  
     length 7.59371  
     axis 0 0 20  XYZ
    dof rx ry rz
    limits (-160.0 20.0)
           (-70.0 70.0)
           (-60.0 70.0)
  end
  begin
     id 3 
     name ltibia
     direction 0.34202 -0.939693 0   
     length 7.28717   
     axis 0 0 20   XYZ
    dof rx
    limits (-10.0 170.0)
  end
  begin
     id 4 
     name lfoot
     direction 0.0886837 -0.243657 0.965798   
     length 2.2218   
     axis -90 7.62852e-016 20   XYZ
    dof rx rz
    limits (-45.0 90.0)
           (-70.0 20.0)
  end
  begin
     id 5 
     name ltoes
     direction 1.53547e-011 -4.22004e-011 1   
     length 1.11249   
     axis -90 7.62852e-016 20   XYZ
    dof rx
    limits (-90.0 20.0)
  end
  begin
     id 6 
     name rhipjoint
     direction -0.645062 -0.722004 0.250209   
     length 2.49697  
     axis 0 0 0  XYZ 
  end
  begin
     id 7 
     name rfemur
     direction -0.34202 -0.939693 0   
     length 7.58734   
     axis 0 0 -20   XYZ
    dof rx ry rz
    limits (-160.0 20.0)
           (-70.0 70.0)
           (-70.0 60.0)
  end
  begin
     id 8 
     name rtibia
     direction -0.34202 -0.939693 0   
     length 7.21538   
     axis 0 0 -20   XYZ
    dof rx
    limits (-10.0 170.0)
 end
 begin
     id 9 
     name rfoot
     direction -0.102907 -0.282735 0.953662   
     length 2.23735  
     axis -90 -7.62852e-016 -20   XYZ
    dof rx rz
    limits (-45.0 90.0)
           (-20.0 70.0)
  end
  begin
     id 10 
     name rtoes
     direction -1.5354e-011 -4.21751e-011 1   
     length 1.11569   
     axis -90 -7.62852e-016 -20   XYZ
    dof rx
    limits (-90.0 20.0)
  end
  begin
     id 11 
     name lowerback
     direction 0.00952301 0.997604 -0.0685217   
     length 2.05943   
     axis 0 0 0   XYZ
    dof rx ry rz
    limits (-20.0 45.0)
           (-30.0 30.0)
           (-30.0 30.0)
  end
  begin
     id 12 
     name upperback
     direction 0.00494399 0.999577 -0.0286701   
     length 2.06523   
     axis 0 0 0   XYZ
    dof rx ry rz
    limits (-20.0 45.0)
           (-30.0 30.0)
           (-30.0 30.0)
  end
  begin
     id 13 
     name thorax
     direction 0.000729686 0.999992 0.00388603   
     length 2.06807   
     axis 0 0 0   XYZ
    dof rx ry rz
    limits (-20.0 45.0)
           (-30.0 30.0)
           (-30.0 30.0)
  end
  begin
     id 14 
     name lowerneck
     direction 0.00452882 0.995459 0.0950816   
     length 1.57426   
     axis 0 0 0   XYZ
    dof rx ry rz
    limits (-20.0 45.0)
           (-30.0 30.0)
           (-30.0 30.0)
  end
  begin
     id 15 
     name upperneck
     direction 0.021922 0.997711 -0.0639762   
     length 1.56399   
     axis 0 0 0   XYZ
    dof rx ry rz
    limits (-20.0 45.0)
           (-30.0 30.0)
           (-30.0 30.0)
  end
  begin
     id 16
     name head
     direction 0.008024 0.999444 -0.0323691  
     length 1.6265  
     axis 0 0 0   XYZ
    dof rx ry rz
    limits (-20.0 45.0)
           (-30.0 30.0)
           (-30.0 30.0)
  end
  begin
     id 17 
     name lclavicle
     direction 0.967826 0.247107 -0.0474446  
     length 3.6598  
     axis 0 0 0   XYZ
    dof ry rz
    limits (-20.0 10.0)
           (0.0 20.0)
  end
  begin
     id 18 
     name lhumerus
     direction 1 -4.48971e-011 -2.90544e-027   
     length 4.86513   
     axis 180 -30 -90   XYZ
    dof rx ry rz
    limits (-60.0 90.0)
           (-90.0 90.0)
           (-90.0 90.0)
  end
  begin
     id 19
     name lradius
     direction 1 -4.48958e-011 1.79638e-026   
     length 3.35554   
     axis 180 -30 -90   XYZ
    dof rx
    limits (-10.0 170.0)
  end
  begin
     id 20
     name lwrist
     direction 1 -4.48952e-011 3.34345e-026   
     length 1.67777   
     axis -2.22354e-014 90 90   XYZ
    dof ry
    limits (-180.0 0.0)
 end
  begin
     id 21 
     name lhand
     direction 1 -4.49055e-011 6.6869e-026   
     length 0.661175   
     axis -4.26681e-014 90 90   XYZ
    dof rx rz
    limits (-90.0 90.0)
           (-45.0 45.0)
  end
  begin
     id 22 
     name lfingers
     direction 1 -4.48731e-011 1.33738e-025   
     length 0.533057   
     axis -8.53362e-014 90 90   XYZ
    dof rx
    limits (0.0 90.0)
  end
  begin
     id 23
     name lthumb
     direction 0.707107 -6.35005e-011 0.707107   
     length 0.765366   
     axis -90 45 2.85299e-015   XYZ
    dof rx rz
    limits (-45.0 45.0)
           (-45.0 45.0)
  end
  begin
     id 24 
     name rclavicle
     direction -0.973174 0.211421 -0.0907389   
     length 3.59444  
     axis 0 0 0   XYZ 
    dof ry rz
    limits (-10.0 20.0)
           (-20.0 0.0)
  end
  begin
     id 25 
     name rhumerus
     direction -1 -4.48964e-011 1.56311e-027  
     length 5.02649   
     axis 180 30 90   XYZ
    dof rx ry rz
    limits (-90.0 60.0)
           (-90.0 90.0)
           (-90.0 90.0)
  end
  begin
     id 26 
     name rradius
     direction -1 -4.48948e-011 2.01724e-026   
     length 3.36431   
     axis 180 30 90   XYZ
    dof rx
    limits (-10.0 170.0)
  end
  begin
     id 27 
     name rwrist
     direction -1 -4.49008e-011 3.34345e-026   
     length 1.68216   
     axis -2.22354e-014 -90 -90   XYZ
    dof ry
    limits (-180.0 0.0)
  end
  begin
     id 28
     name rhand
     direction -1 -4.49013e-011 6.6869e-026   
     length 0.730406   
     axis -4.26681e-014 -90 -90   XYZ
    dof rx rz
    limits (-90.0 90.0)
           (-45.0 45.0)
  end
  begin
     id 29
     name rfingers
     direction -1 -4.48867e-011 1.33738e-025   
     length 0.588872   
     axis -8.53362e-014 -90 -90   XYZ
    dof rx
    limits (0.0 90.0)
  end
  begin
     id 30
     name rthumb
     direction -0.707107 -6.34907e-011 0.707107   
     length 0.845506   
     axis -90 -45 -2.85299e-015   XYZ
    dof rx rz
    limits (-45.0 45.0)
           (-45.0 45.0)
  end
:hierarchy
  begin
    root lhipjoint rhipjoint lowerback
    lhipjoint lfemur
    lfemur ltibia
    ltibia lfoot
    lfoot ltoes
    rhipjoint rfemur
    rfemur rtibia
    rtibia rfoot
    rfoot rtoes
    lowerback upperback
    upperback thorax
    thorax lowerneck lclavicle rclavicle
    lowerneck upperneck
    upperneck head
    lclavicle lhumerus
    lhumerus lradius
    lradius lwrist
    lwrist lhand lthumb
    lhand lfingers
    rclavicle rhumerus
    rhumerus rradius
    rradius rwrist
    rwrist rhand rthumb
    rhand rfingers
  end

#!OML:ASF H:\Terrain\Patient Classification 1\Takeo\Monday\TakeoMonday.ASF
:FULLY-SPECIFIED
:DEGREES
33
root 9.51871 17.6621 -1.37404 10.6789 -1.44554 0.562748
lowerback 17.1429 -1.07678 1.09178
upperback 4.96957 -1.22972 -0.0607899
thorax -4.314 -0.607153 -0.431618
lowerneck -10.3426 -0.437951 -5.38939
upperneck -14.6574 0.345792 5.68011
head -3.02837 0.31186 2.83856
rclavicle -2.98177e-016 -1.11816e-016
rhumerus -33.5999 21.583 -85.5094
rradius 40.3213
rwrist -18.6425
rhand -30.137 27.6786
rfingers 7.12502
rthumb -3.44979 -2.27322
lclavicle -2.98177e-016 -1.11816e-016
lhumerus -38.1777 -15.0992 81.373
lradius 51.6131
lwrist 30.5272
lhand -27.747 12.273
lfingers 7.12502
lthumb -1.14154 42.2497
rfemur -27.242 5.99773 20.4208
rtibia 32.4223
rfoot -15.7521 -11.326
rtoes -0.546176
lfemur -26.5987 -1.70774 -23.1833
ltibia 33.013
lfoot -14.9051 11.4131
ltoes -2.51184
34
root 9.51616 17.6127 -1.40917 11.3992 -1.41764 1.12578
lowerback 17.7215 -1.07314 0.484098
upperback 5.08856 -1.32922 -0.187425
thorax -4.48594 -0.652913 -0.192037
lowerneck -10.4176 -0.236256 -5.01443
upperneck -15.4147 0.57235 5.21773
head -3.28968 0.417924 2.62215
rclavicle -4.64349e-015 2.44132e-015
rhumerus -34.5153 21.0891 -84.9423
rradius 39.7424
rwrist -18.798
rhand -30.7589 28.6137
rfingers 7.12502
rthumb -4.05035 -1.32759
lclavicle -4.64349e-015 2.44132e-015
lhumerus -39.0327 -14.3679 80.1428
lradius 50.55
lwrist 31.173
lhand -27.0428 13.872
lfingers 7.12502
lthumb -0.461419 43.8512
rfemur -28.9195 6.01819 19.6951
rtibia 33.793
rfoot -16.0795 -11.3357
rtoes -0.368841
lfemur -28.0751 -1.54937 -23.8515
ltibia 34.126
lfoot -14.9932 11.2291
ltoes -4.02171
35
root 9.50975 17.5654 -1.44691 12.2249 -1.33628 1.10232
lowerback 18.203 -1.08233 0.548994
upperback 5.22816 -1.33097 -0.278288
thorax -4.59535 -0.652881 -0.317972
lowerneck -10.6747 -0.194835 -4.72002
upperneck -15.9994 0.617975 5.0531
head -3.45224 0.432505 2.51968
rclavicle 4.94477e-015 1.9133e-015
rhumerus -35.4813 20.5188 -84.4829
rradius 39.1382
rwrist -18.8467
rhand -31.7075 28.6562
rfingers 7.12502
rthumb -4.96634 -1.26559
lclavicle 4.94477e-015 1.9133e-015
lhumerus -40.0046 -14.0695 78.8997
lradius 49.5039
lwrist 31.7
lhand -27.2795 14.4562
lfingers 7.12502
lthumb -0.689993 44.4348
rfemur -30.6959 6.15418 19.6184
rtibia 35.1289
rfoot -16.3383 -11.4587
rtoes -0.0102769
lfemur -29.7579 -1.30927 -23.8455
ltibia 35.4064
lfoot -15.0674 10.9198
ltoes -4.69876
36
root 9.50309 17.5118 -1.47981 13.1486 -1.06202 0.481671
lowerback 18.5463 -1.16179 1.25609
upperback 5.39111 -1.29577 -0.155142
thorax -4.6136 -0.637081 -0.592237
lowerneck -10.6938 -0.270456 -4.4466
upperneck -16.8427 0.481714 4.71826
head -3.74042 0.358328 2.36695
rclavicle 5.34234e-015 7.25564e-015
rhumerus -36.3667 20.0072 -83.866
rradius 38.5072
rwrist -18.9
rhand -32.3846 27.6416
rfingers 7.12502
rthumb -5.62005 -2.26389
lclavicle 5.34234e-015 7.25564e-015
lhumerus -40.9433 -13.6603 77.776
lradius 48.2843
lwrist 31.6341
lhand -27.7473 14.5489
lfingers 7.12502
lthumb -1.14189 44.5256
rfemur -32.4581 6.13645 20.2591
rtibia 36.4234
rfoot -16.7225 -11.4782
rtoes 0.940621
lfemur -31.6822 -0.947697 -23.1827
ltibia 36.8429
lfoot -15.3333 10.3452
ltoes -4.30218
37
root 9.49957 17.452 -1.50687 13.9661 -0.772338 0.00390393
lowerback 18.9021 -1.25206 1.77062
upperback 5.53201 -1.30193 0.0202127
thorax -4.65614 -0.640807 -0.6922
lowerneck -10.4361 -0.305753 -4.3254
upperneck -17.7145 0.393302 4.35351
head -4.0979 0.316216 2.23459
rclavicle -1.14301e-015 3.32964e-015
rhumerus -37.4316 19.3561 -83.0787
rradius 38.0128
rwrist -18.7374
rhand -32.3254 26.6412
rfingers 7.12502
rthumb -5.56291 -3.26579
lclavicle -1.14301e-015 3.32964e-015
lhumerus -42.0947 -13.2379 76.8
lradius 47.0399
lwrist 31.4237
lhand -28.1577 15.1305
lfingers 7.12502
lthumb -1.53825 45.1047
rfemur -34.1494 5.97263 20.7851
rtibia 37.7836
rfoot -17.0629 -11.4413
rtoes 1.54209
lfemur -33.5317 -0.653908 -22.7047
ltibia 38.3619
lfoot -15.7428 9.92507
ltoes -5.0702
38
root 9.49679 17.3998 -1.53311 14.6173 -0.724199 0.114246
lowerback 19.5778 -1.26079 1.51067
upperback 5.58348 -1.3451 0.0556122
thorax -4.94969 -0.661524 -0.485906
lowerneck -10.355 -0.245632 -3.98863
upperneck -18.2295 0.400538 3.87868
head -4.29743 0.313758 2.01746
rclavicle 1.22501e-014 -8.02593e-015
rhumerus -38.7064 18.7018 -82.3551
rradius 37.4504
rwrist -18.264
rhand -31.9604 26.0945
rfingers 7.12502
rthumb -5.21048 -3.82141
lclavicle 1.22501e-014 -8.02593e-015
lhumerus -43.6209 -12.9506 75.8939
lradius 45.9583
lwrist 31.4515
lhand -28.4564 16.1403
lfingers 7.12502
lthumb -1.82672 46.1122
rfemur -35.8217 5.79661 20.647
rtibia 39.2963
rfoot -17.4322 -11.3778
rtoes 0.718601
lfemur -35.17 -0.531686 -22.8524
ltibia 39.8701
lfoot -16.341 9.6448
ltoes -4.53722
39
root 9.49323 17.3366 -1.57026 15.412 -0.856013 0.684274
lowerback 20.288 -1.1718 0.764181
upperback 5.64013 -1.37066 -0.0508352
thorax -5.24625 -0.669979 -0.157121
lowerneck -10.4785 -0.183722 -3.49617
upperneck -18.7615 0.387253 3.27528
head -4.4657 0.297376 1.72706
rclavicle -6.85807e-015 -5.96354e-016
rhumerus -39.8694 18.109 -81.6535
rradius 36.7036
rwrist -17.9774
rhand -32.0277 26.1357
rfingers 7.12502
rthumb -5.2755 -3.77868
lclavicle -6.85807e-015 -5.96354e-016
lhumerus -44.9693 -12.4074 74.8938
lradius 44.8913
lwrist 30.9963
lhand -28.3396 16.9762
lfingers 7.12502
lthumb -1.7139 46.9491
rfemur -37.7894 5.7707 19.9118
rtibia 40.9476
rfoot -18.0153 -11.2707
rtoes 0.12195
lfemur -37.0122 -0.448369 -23.52
ltibia 41.3779
lfoot -16.8847 9.43084
ltoes -3.84521
40
root 9.48849 17.2507 -1.61929 16.2017 -0.90563 0.90108
lowerback 21.2155 -1.08631 0.439814
upperback 5.65882 -1.31743 -0.0563123
thorax -5.70051 -0.640895 0.0247503
lowerneck -10.7106 -0.235711 -3.43561
upperneck -19.1464 0.29288 3.0302
head -4.56505 0.257879 1.63598
rclavicle 1.58531e-014 -9.98893e-015
rhumerus -41.212 17.3457 -80.8254
rradius 35.9589
rwrist -17.5599
rhand -32.258 26.5685
rfingers 7.12502
rthumb -5.49782 -3.34018
lclavicle 1.58531e-014 -9.98893e-015
lhumerus -46.2841 -11.945 73.9883
lradius 43.6379
lwrist 30.0527
lhand -28.2369 16.937
lfingers 7.12502
lthumb -1.61468 46.9106
rfemur -39.7834 5.90127 19.5547
rtibia 42.6333
rfoot -18.6046 -11.1955
rtoes 0.699682
lfemur -38.9777 -0.321239 -23.8035
ltibia 42.9745
lfoot -17.2254 9.27691
ltoes -4.11692
41
root 9.48405 17.1615 -1.66354 16.8295 -0.702047 0.396215
lowerback 22.3827 -1.10177 0.864992
upperback 5.59975 -1.21764 0.152005
thorax -6.37134 -0.595245 0.00142177
lowerneck -10.9497 -0.296531 -3.44487
upperneck -19.243 0.198939 2.87531
head -4.55479 0.219411 1.58431
rclavicle -1.02374e-014 5.46658e-015
rhumerus -43.0052 16.7381 -80.1418
rradius 35.3297
rwrist -16.6338
rhand -33.0507 27.1874
rfingers 7.12502
rthumb -6.26316 -2.69996
lclavicle -1.02374e-014 5.46658e-015
lhumerus -47.9191 -11.6884 73.2917
lradius 42.2285
lwrist 29.1113
lhand -29.2125 15.479
lfingers 7.12502
lthumb -2.55694 45.4434
rfemur -41.4791 5.93525 20.1038
rtibia 44.2755
rfoot -19.1055 -11.1143
rtoes 2.0914
lfemur -40.8391 -0.162513 -23.276
ltibia 44.7282
lfoot -17.631 9.09681
ltoes -3.83671
